<svg class="body-bg" xmlns="http://www.w3.org/2000/svg" viewBox="0 0 1440 320">
    <path fill="#0076f0" fill-opacity="1"
        d="M0,96L30,96C60,96,120,96,180,96C240,96,300,96,360,133.3C420,171,480,245,540,250.7C600,256,660,192,720,149.3C780,107,840,85,900,112C960,139,1020,213,1080,202.7C1140,192,1200,96,1260,96C1320,96,1380,192,1410,240L1440,288L1440,0L1410,0C1380,0,1320,0,1260,0C1200,0,1140,0,1080,0C1020,0,960,0,900,0C840,0,780,0,720,0C660,0,600,0,540,0C480,0,420,0,360,0C300,0,240,0,180,0C120,0,60,0,30,0L0,0Z">
    </path>
</svg>